#!OML:ASF E:/inclinewalkrobotboard/Project1/Captureday1/Session1/subject1.ASF
:FULLY-SPECIFIED
:DEGREES
188
root 0 0 0 1.4145187626213787 -3.502147348682378 1.9282143081284853
lowerback 11.963072343853057 0.8714798135432986 -0.1469995918550966
upperback -4.417659812353003 1.0857337673442864 -0.6237058590969823
thorax -11.536182573728318 0.49896779072431147 -0.8300646180280226
lowerneck -6.121249580691009 1.6458242332047093 4.600553524541657
upperneck 18.448766272413103 3.143436407434948 -8.249359750426693
head 6.783799838890905 1.1578110634169065 -3.1795025120635136
rclavicle -1.77202345861647E-16 -9.713560315650515E-16
rhumerus 22.146750579961463 15.897572881108895 -46.589388051207564
rradius 74.23916894260172
rwrist 27.85647060125186
rhand -34.82991321002749 -59.6371178298112
rfingers 7.12502
rthumb -7.990380758595636 -89.45104435676461
lclavicle -1.7148251346261188E-16 -9.474270785630053E-16
lhumerus 22.899498300113276 -12.82204829955394 43.5586832197443
lradius 71.40393727434105
lwrist -23.69190722970624
lhand -45.37228792776199 -73.37870239193188
lfingers 7.12502
lthumb -18.127273495428263 -44.159237041598544
rfemur -25.229035662018894 -1.975789662219369 16.95217053298126
rtibia 54.28309374360515
rfoot -26.861309043470058 -16.21566256548585
rtoes -17.15330623982171
lfemur -22.106687936492264 1.3107377871527353 -18.122839979632573
ltibia 49.08799597533789
lfoot -24.05822946332011 -3.6378804613034426
ltoes -15.68889136167811
189
root 0 0 0 1.421885948309976 -3.53883188552276 1.8831062561336027
lowerback 11.965493112410616 0.892955934708533 -0.094236873096191
upperback -4.428424133857984 1.1201037729896355 -0.6262524681169458
thorax -11.546446586661556 0.514428222308696 -0.8675966737879227
lowerneck -6.108404840150146 1.6469148736825503 4.615906032577315
upperneck 18.44888912024588 3.148129830742778 -8.258525576477084
head 6.782431768107189 1.1597739546917314 -3.185450963783147
rclavicle -1.7507951054013895E-16 -9.707473143372692E-16
rhumerus 22.213616571670784 15.941398894228582 -46.54878320009243
rradius 74.30070255806416
rwrist 27.886690968230763
rhand -34.85199038524506 -59.741280733781046
rfingers 7.12502
rthumb -8.011942093333513 -89.55428198605267
lclavicle -1.7152737839807951E-16 -9.482341843384473E-16
lhumerus 22.873444578019186 -12.815732094711121 43.576419708941096
lradius 71.38366860402648
lwrist -23.678757535025742
lhand -45.36362453802626 -73.3351119804727
lfingers 7.12502
lthumb -18.119412969232528 -44.1155122048079
rfemur -25.207226777177354 -1.9665312945382185 16.9665058352996
rtibia 54.26281442951994
rfoot -26.837185590919418 -16.2013557045614
rtoes -17.12517374539072
lfemur -22.090889857046633 1.304872459854989 -18.12521443147432
ltibia 49.05467458098622
lfoot -24.038449268406225 -3.631838681672868
ltoes -15.668118809603225
190
root 0 0 0 1.4270966627573247 -3.5655571623945503 1.8501189356026957
lowerback 11.96716650437303 0.9085923206228058 -0.05584752566119444
upperback -4.43608828603089 1.1451201684390737 -0.6280446944359704
thorax -11.553685684725016 0.5256874363976017 -0.8947986522977432
lowerneck -6.09958350398644 1.6475695984795988 4.626772814929349
upperneck 18.448971891707462 3.1513075472192402 -8.264845272504738
head 6.781488649468148 1.1611374427432066 -3.1896261989376455
rclavicle -1.7415662302595247E-16 -9.704924777725263E-16
rhumerus 22.248375988083623 15.964469042532675 -46.52798667723796
rradius 74.33304783289958
rwrist 27.902307100611036
rhand -34.863476704081485 -59.795920849897236
rfingers 7.12502
rthumb -8.023173559611314 -89.60836269761461
lclavicle -1.7218285050806838E-16 -9.484381393982285E-16
lhumerus 22.829692696858228 -12.8047655062423 43.60681631753264
lradius 71.34934153587442
lwrist -23.655831597141752
lhand -45.348857633130834 -73.25913545634997
lfingers 7.12502
lthumb -18.105437175912755 -44.04065111128109
rfemur -25.243160112062405 -1.9843196802257683 16.940520693166096
rtibia 54.30494528109796
rfoot -26.883382809192383 -16.22618564431967
rtoes -17.17746416156987
lfemur -22.046721611192954 1.2922159376215492 -18.133347882276983
ltibia 48.98244500747799
lfoot -23.98861964669733 -3.6238412602962375
ltoes -15.624253573501411
191
root 0 0 0 1.4305846475456483 -3.581151553354409 1.8316136560380991
lowerback 11.968285588917778 0.9177094161566558 -0.03386851932727708
upperback -4.441118103868777 1.1596259769966042 -0.6293998743935373
thorax -11.558645960326928 0.5322292242677941 -0.9107460385616118
lowerneck -6.093277400733265 1.64853466575544 4.633856828564775
upperneck 18.448858730697097 3.1540041850688643 -8.269572808353303
head 6.780660179449823 1.1623012216480757 -3.192399305044764
rclavicle -1.736660742400855E-16 -9.703215350095179E-16
rhumerus 22.26696568495342 15.976835097297473 -46.51701428577711
rradius 74.35037818421438
rwrist 27.910580793705513
rhand -34.86963781426134 -59.825075175326845
rfingers 7.12502
rthumb -8.029199139994969 -89.63710551018286
lclavicle -1.727783343637514E-16 -9.486997494663236E-16
lhumerus 22.7889540832464 -12.794589778927863 43.635074803293065
lradius 71.31739866641257
lwrist -23.63452705746244
lhand -45.33513783297082 -73.1885030695664
lfingers 7.12502
lthumb -18.092465152443804 -43.97095949668443
rfemur -25.31913184697214 -2.020827170309695 16.88658287927192
rtibia 54.39025625789835
rfoot -26.97814843414042 -16.277675235880565
rtoes -17.285256317139638
lfemur -21.983135939047386 1.275228869114498 -18.145466759066373
ltibia 48.88584091284271
lfoot -23.919147430505937 -3.615430216622335
ltoes -15.566199360070959
192
root 0 0 0 1.2313864389109033 -3.520571436838839 1.633402833587813
lowerback 11.894777374497476 0.8863503053860535 0.008892302539765362
upperback -4.190872715913012 1.1358991750411693 -0.5162402654323931
thorax -11.23580638049076 0.5199470433153704 -0.8051626066800875
lowerneck -6.630892991987847 1.418010147186598 4.2966555469398156
upperneck 18.492251365612194 2.815341358094868 -7.8217320860858495
head 6.884869970433906 1.015876716780073 -3.0325175861737574
rclavicle -2.615176471598123E-16 -9.571337877409914E-16
rhumerus 18.65133710924765 13.591733158337435 -48.75659872465473
rradius 71.00663570214876
rwrist 26.234434882363345
rhand -33.663746664990256 -54.06050008287277
rfingers 7.125019999999998
rthumb -6.857108095062069 -83.88510115604916
lclavicle -2.246689669340469E-16 -9.600172168588374E-16
lhumerus 19.349521587168486 -11.9461417555494 46.028769006514636
lradius 68.61567686262134
lwrist -21.821797943757915
lhand -44.17649006287901 -67.22105837147306
lfingers 7.1250199999999975
lthumb -16.98914682135974 -38.02052494723566
rfemur -23.3241448869008 -1.0788445141157275 18.28708343230921
rtibia 52.215228629566724
rfoot -24.518685867785287 -14.928689042443139
rtoes -14.510333479571159
lfemur -21.55519226358938 1.1758956575369202 -18.220741500445552
ltibia 48.31687770942461
lfoot -23.448807316826 -3.587019146685465
ltoes -15.216615724199112
193
root 0 0 0 1.137010603646238 -3.538794675562312 1.4678216298871327
lowerback 11.859654030500042 0.9005586142127713 0.10034985329147006
upperback -4.076810978834919 1.1674169019519463 -0.4608046795526136
thorax -11.085142777747171 0.5351348263438168 -0.7971272351364559
lowerneck -6.896027576649001 1.3015454566207907 4.142915888552439
upperneck 18.512374949077802 2.645676862075074 -7.603337947435975
head 6.935998275949691 0.9419384949324082 -2.9549648335229115
rclavicle -3.1212555115568603E-16 -9.690746854571718E-16
rhumerus 16.455392609528907 12.130882911197434 -50.07571638069597
rradius 68.95744918642677
rwrist 25.233755758707392
rhand -32.93886318864722 -50.556733707597665
rfingers 7.1250199999999975
rthumb -6.151253747269449 -80.40625351937132
lclavicle -2.4490565571288627E-16 -9.28342630796869E-16
lhumerus 16.945544159411334 -11.35587455315102 47.73675190537071
lradius 66.73248723504318
lwrist -20.559296729705707
lhand -43.36044755404903 -63.02052273073167
lfingers 7.125019999999997
lthumb -16.214048758274615 -33.758783732162456
rfemur -24.013970847373166 -1.4031318768872199 17.804244230437906
rtibia 52.980759078031696
rfoot -25.35976996285448 -15.399741009876827
rtoes -15.458484824781255
lfemur -21.96506510909387 1.2618975857642274 -18.14141893923192
ltibia 48.79509505467188
lfoot -23.8846343921042 -3.5799940639021566
ltoes -15.509760892351904
194
root 0 0 0 1.3778214422002444 -3.6010351384278003 1.7239194608788908
lowerback 11.948660292752487 0.9308076026261425 0.03387507476738538
upperback -4.377669022884231 1.188165064270076 -0.5979191865536994
thorax -11.472489591546058 0.5447147752149553 -0.9176377607549505
lowerneck -6.242761738003576 1.580302964274707 4.547155802922859
upperneck 18.46122570302204 3.0567681697060265 -8.144331883805595
head 6.810263541607985 1.1204607820273997 -3.1500985148484117
rclavicle -2.1023620534851972E-16 -9.747821424800123E-16
rhumerus 21.080584834930335 15.191586134931443 -47.246579323498636
rradius 73.24636597924274
rwrist 27.364283651986362
rhand -34.47521312418423 -57.933899063372415
rfingers 7.125019999999999
rthumb -7.6451206258101365 -87.75694783974564
lclavicle -1.906114338715465E-16 -9.487413798677408E-16
lhumerus 21.41630377461573 -12.455415398324357 44.59455588860604
lradius 70.24363467805392
lwrist -22.913429907302202
lhand -44.87221725081593 -70.80793030802337
lfingers 7.125019999999999
lthumb -17.652473423223967 -41.59569479187137
rfemur -24.618810443077344 -1.6940809238312475 17.380938420405702
rtibia 53.65100334442135
rfoot -26.086613469323822 -15.795170482804345
rtoes -16.28036853264551
lfemur -21.927421629750548 1.2600088309867552 -18.150956718106155
ltibia 48.806105950432055
lfoot -23.840521900933297 -3.6120629028583173
ltoes -15.506629923576725
195
root 0 0 0 1.4204191866263178 -3.6175636812035927 1.7616195032605384
lowerback 11.964479942641443 0.9394331908214488 0.030208157387365375
upperback -4.430816058613432 1.1967180545380005 -0.6219903368431295
thorax -11.541198033169561 0.5487953544273492 -0.9438011895357142
lowerneck -6.128199504101105 1.628813809149522 4.620121939550093
upperneck 18.452776522768104 3.128167276252514 -8.239211569746299
head 6.78855016322908 1.151362565797109 -3.1846124008209467
rclavicle -1.8626405009571546E-16 -9.72837751105227E-16
rhumerus 21.93648509961256 15.758748970442783 -46.72042349200824
rradius 74.04289101529999
rwrist 27.758214762162392
rhand -34.75998637118701 -59.29988251998227
rfingers 7.125019999999999
rthumb -7.922302687465157 -89.11294266546065
lclavicle -1.7838708909604735E-16 -9.499829667346451E-16
lhumerus 22.282917600828515 -12.669466587545243 43.98767399742839
lradius 70.92205988236562
lwrist -23.369442589829347
lhand -45.16460789924325 -72.31277626757354
lfingers 7.125019999999999
lthumb -17.930790504800907 -43.0993554670857
rfemur -25.140419484666054 -1.9398294475799487 17.01233810912483
rtibia 54.213525669888824
rfoot -26.74717069132533 -16.152811054053785
rtoes -17.026863837365354
lfemur -21.911093373424237 1.2549795049328538 -18.156065386190168
ltibia 48.77581385419967
lfoot -23.828672139782903 -3.6065919370551107
ltoes -15.492372963737967
